HIERARCHY
ROOT Hips
{
	OFFSET -14.64140 90.27770 -84.91600
	CHANNELS 6 Xposition Yposition Zposition Zrotation Xrotation Yrotation
	JOINT Spine
	{
		OFFSET 0.00000 13.20850 -1.60436
		CHANNELS 3 Zrotation Xrotation Yrotation
		JOINT Spine1
		{
			OFFSET 0.00000 8.61716 0.00000
			CHANNELS 3 Zrotation Xrotation Yrotation
			JOINT Spine2
			{
				OFFSET 0.00000 8.61717 0.00000
				CHANNELS 3 Zrotation Xrotation Yrotation
				JOINT Spine3
				{
					OFFSET 0.00000 8.61717 0.00000
					CHANNELS 3 Zrotation Xrotation Yrotation
					JOINT Neck
					{
						OFFSET 0.00000 11.07920 1.10792
						CHANNELS 3 Zrotation Xrotation Yrotation
						JOINT Neck1
						{
							OFFSET 0.00000 7.08032 0.00000
							CHANNELS 3 Zrotation Xrotation Yrotation
							JOINT Head
							{
								OFFSET 0.00000 7.08031 0.00000
								CHANNELS 3 Zrotation Xrotation Yrotation
								End site
								{
									OFFSET 0.00000 0.00000 0.00000
								}
							}
						}
					}
					JOINT RightShoulder
					{
						OFFSET -0.01000 7.91373 5.19711
						CHANNELS 3 Zrotation Xrotation Yrotation
						JOINT RightArm
						{
							OFFSET -18.41580 0.00000 0.00000
							CHANNELS 3 Zrotation Xrotation Yrotation
							JOINT RightForeArm
							{
								OFFSET -29.11090 0.00000 0.00000
								CHANNELS 3 Zrotation Xrotation Yrotation
								JOINT RightHand
								{
									OFFSET -24.65040 0.00000 0.00000
									CHANNELS 3 Zrotation Xrotation Yrotation
									JOINT RightHandThumb1
									{
										OFFSET -5.35114 -0.85590 3.97906
										CHANNELS 3 Zrotation Xrotation Yrotation
										JOINT RightHandThumb2
										{
											OFFSET -4.52789 0.00000 0.00000
											CHANNELS 3 Zrotation Xrotation Yrotation
											JOINT RightHandThumb3
											{
												OFFSET -2.46976 0.00000 0.00000
												CHANNELS 3 Zrotation Xrotation Yrotation
												End site
												{
													OFFSET 0.00000 0.00000 0.00000
												}
											}
										}
									}
									JOINT RightHandIndex1
									{
										OFFSET -14.26970 0.00000 2.88139
										CHANNELS 3 Zrotation Xrotation Yrotation
										JOINT RightHandIndex2
										{
											OFFSET -5.48836 0.00000 0.00000
											CHANNELS 3 Zrotation Xrotation Yrotation
											JOINT RightHandIndex3
											{
												OFFSET -3.01859 0.00000 0.00000
												CHANNELS 3 Zrotation Xrotation Yrotation
												End site
												{
													OFFSET 0.00000 0.00000 0.00000
												}
											}
										}
									}
									JOINT RightHandMiddle1
									{
										OFFSET -14.26970 0.00000 -0.09147
										CHANNELS 3 Zrotation Xrotation Yrotation
										JOINT RightHandMiddle2
										{
											OFFSET -6.17441 0.00000 0.00000
											CHANNELS 3 Zrotation Xrotation Yrotation
											JOINT RightHandMiddle3
											{
												OFFSET -3.56743 0.00000 0.00000
												CHANNELS 3 Zrotation Xrotation Yrotation
												End site
												{
													OFFSET 0.00000 0.00000 0.00000
												}
											}
										}
									}
									JOINT RightHandRing1
									{
										OFFSET -12.69180 0.00000 -3.06433
										CHANNELS 3 Zrotation Xrotation Yrotation
										JOINT RightHandRing2
										{
											OFFSET -5.62556 0.00000 0.00000
											CHANNELS 3 Zrotation Xrotation Yrotation
											JOINT RightHandRing3
											{
												OFFSET -3.56744 0.00000 0.00000
												CHANNELS 3 Zrotation Xrotation Yrotation
												End site
												{
													OFFSET 0.00000 0.00000 0.00000
												}
											}
										}
									}
									JOINT RightHandPinky1
									{
										OFFSET -11.11390 0.00000 -6.03719
										CHANNELS 3 Zrotation Xrotation Yrotation
										JOINT RightHandPinky2
										{
											OFFSET -4.52789 0.00000 0.00000
											CHANNELS 3 Zrotation Xrotation Yrotation
											JOINT RightHandPinky3
											{
												OFFSET -2.46976 0.00000 0.00000
												CHANNELS 3 Zrotation Xrotation Yrotation
												End site
												{
													OFFSET 0.00000 0.00000 0.00000
												}
											}
										}
									}
								}
							}
						}
					}
					JOINT LeftShoulder
					{
						OFFSET 0.01000 7.91373 5.19711
						CHANNELS 3 Zrotation Xrotation Yrotation
						JOINT LeftArm
						{
							OFFSET 18.41580 0.00000 0.00000
							CHANNELS 3 Zrotation Xrotation Yrotation
							JOINT LeftForeArm
							{
								OFFSET 29.11090 0.00000 0.00000
								CHANNELS 3 Zrotation Xrotation Yrotation
								JOINT LeftHand
								{
									OFFSET 24.65040 0.00000 0.00000
									CHANNELS 3 Zrotation Xrotation Yrotation
									JOINT LeftHandThumb1
									{
										OFFSET 5.35114 -0.85590 3.97906
										CHANNELS 3 Zrotation Xrotation Yrotation
										JOINT LeftHandThumb2
										{
											OFFSET 4.52789 0.00000 0.00000
											CHANNELS 3 Zrotation Xrotation Yrotation
											JOINT LeftHandThumb3
											{
												OFFSET 2.46977 0.00000 0.00000
												CHANNELS 3 Zrotation Xrotation Yrotation
												End site
												{
													OFFSET 0.00000 0.00000 0.00000
												}
											}
										}
									}
									JOINT LeftHandIndex1
									{
										OFFSET 14.26970 0.00000 2.88139
										CHANNELS 3 Zrotation Xrotation Yrotation
										JOINT LeftHandIndex2
										{
											OFFSET 5.48836 0.00000 0.00000
											CHANNELS 3 Zrotation Xrotation Yrotation
											JOINT LeftHandIndex3
											{
												OFFSET 3.01859 0.00000 0.00000
												CHANNELS 3 Zrotation Xrotation Yrotation
												End site
												{
													OFFSET 0.00000 0.00000 0.00000
												}
											}
										}
									}
									JOINT LeftHandMiddle1
									{
										OFFSET 14.26970 0.00000 -0.09147
										CHANNELS 3 Zrotation Xrotation Yrotation
										JOINT LeftHandMiddle2
										{
											OFFSET 6.17440 0.00000 0.00000
											CHANNELS 3 Zrotation Xrotation Yrotation
											JOINT LeftHandMiddle3
											{
												OFFSET 3.56744 0.00000 0.00000
												CHANNELS 3 Zrotation Xrotation Yrotation
												End site
												{
													OFFSET 0.00000 0.00000 0.00000
												}
											}
										}
									}
									JOINT LeftHandRing1
									{
										OFFSET 12.69180 0.00000 -3.06433
										CHANNELS 3 Zrotation Xrotation Yrotation
										JOINT LeftHandRing2
										{
											OFFSET 5.62556 0.00000 0.00000
											CHANNELS 3 Zrotation Xrotation Yrotation
											JOINT LeftHandRing3
											{
												OFFSET 3.56744 0.00000 0.00000
												CHANNELS 3 Zrotation Xrotation Yrotation
												End site
												{
													OFFSET 0.00000 0.00000 0.00000
												}
											}
										}
									}
									JOINT LeftHandPinky1
									{
										OFFSET 11.11390 0.00000 -6.03719
										CHANNELS 3 Zrotation Xrotation Yrotation
										JOINT LeftHandPinky2
										{
											OFFSET 4.52789 0.00000 0.00000
											CHANNELS 3 Zrotation Xrotation Yrotation
											JOINT LeftHandPinky3
											{
												OFFSET 2.46976 0.00000 0.00000
												CHANNELS 3 Zrotation Xrotation Yrotation
												End site
												{
													OFFSET 0.00000 0.00000 0.00000
												}
											}
										}
									}
								}
							}
						}
					}
					JOINT pCube4
					{
						OFFSET 0.00000 10.91090 1.10792
						CHANNELS 3 Zrotation Xrotation Yrotation
						End site
						{
							OFFSET 0.00000 0.00000 0.00000
						}
					}
				}
			}
		}
	}
	JOINT RightUpLeg
	{
		OFFSET -9.98441 0.00000 0.00000
		CHANNELS 3 Zrotation Xrotation Yrotation
		JOINT RightLeg
		{
			OFFSET 0.00000 -42.11790 0.00000
			CHANNELS 3 Zrotation Xrotation Yrotation
			JOINT RightFoot
			{
				OFFSET 0.00000 -45.00020 -0.00001
				CHANNELS 3 Zrotation Xrotation Yrotation
				JOINT RightForeFoot
				{
					OFFSET 0.00000 -3.74820 0.00000
					CHANNELS 3 Zrotation Xrotation Yrotation
					JOINT RightToeBase
					{
						OFFSET 0.00000 0.06325 14.43120
						CHANNELS 3 Zrotation Xrotation Yrotation
						End site
						{
							OFFSET 0.00000 0.00000 0.00000
						}
					}
				}
			}
		}
	}
	JOINT LeftUpLeg
	{
		OFFSET 9.98441 0.00000 0.00000
		CHANNELS 3 Zrotation Xrotation Yrotation
		JOINT LeftLeg
		{
			OFFSET 0.00000 -42.11800 0.00000
			CHANNELS 3 Zrotation Xrotation Yrotation
			JOINT LeftFoot
			{
				OFFSET 0.00000 -45.00070 0.00000
				CHANNELS 3 Zrotation Xrotation Yrotation
				JOINT LeftForeFoot
				{
					OFFSET 0.00000 -3.74824 0.00000
					CHANNELS 3 Zrotation Xrotation Yrotation
					JOINT LeftToeBase
					{
						OFFSET 0.00000 0.06325 14.43110
						CHANNELS 3 Zrotation Xrotation Yrotation
						End site
						{
							OFFSET 0.00000 0.00000 0.00000
						}
					}
				}
			}
		}
	}
}
MOTION
Frames: 4
Frame Time: 0.050000
-0.018344960452892436 -0.04911286727334163 0.01918853458636316 0.03286727697520331 0.023108152316859865 -0.010628289382438379 -3.292001125614897 0.9866102319791081 -0.7875039458733529 -0.9845051410507651 3.507643796718507 0.29534063012336936 -1.1198935135379346 -1.7607996184997505 -3.626286283319716 0.4695983352155966 0.4695624863689712 -1.1391404943953107 -0.7105831245119546 11.553557019567808 0.6100241413825508 -0.1859181284364417 -1.0476575584555305 1.1300974011401592 -0.33073992848164213 -16.797730089528304 0.10639869700362599 -4.213257928036194 1.572647237019535 -12.987538731755862 70.90401801692464 20.23602238278918 10.030452688872757 17.10627618609087 3.8497496131163658 73.20466431088164 16.182254790881096 -0.37491429129070997 -3.600397898012582 4.4823707152557235 -0.168856284926016 -1.554755484075969 0.025249263405546736 -0.006095245881215553 -56.23011834655693 -0.011002439584382458 0.03836610952915236 -56.24585031058388 -38.782260440573886 -0.013058973290643514 0.04175469625210404 -0.0005534282024155004 0.003440029569082747 0.010604954569776953 -0.010895317512190965 0.0371726458520905 -0.01768897514061431 -36.68973067797641 0.043764687742110925 -0.04676448052878683 0.00947163635730542 0.024196711940378868 -0.019385922061273667 0.04582268867283659 -0.023500390436245085 -0.01725921081666116 -19.752825893150067 0.04080535813873551 0.003604000549094817 0.030385824621995045 -0.010524114197033509 -0.04304848134664049 -0.032537001276635946 0.03846619164181277 0.017074089586013058 24.069532241876317 -0.006277508570749163 0.02025689764509594 28.824155720941842 -0.023953973331095616 0.005724329691300962 28.862064764783536 0.025548268180684293 -0.009156879212466723 8.489278808750324 1.862206097492325 10.027703998682924 -64.06323644441336 21.313651856346194 -29.042820229168154 -44.930676050482575 0.3781803685926588 -74.80137988751922 -11.667756393204844 -4.276277880411579 3.5474567041347482 -0.48459451276329446 0.029906014866004478 -8.157319728059647 -0.016890777857789425 0.025523272378784708 44.60597282767874 -0.026897386138807468 0.03825277268028118 44.53135386145749 12.458730359634266 0.0009677602491646442 0.010334012067991668 -0.0068729798969102635 -0.04308924820858614 -0.035033793625421916 -0.04286880112586904 -0.04493648055278286 -0.03308904409345993 11.147404406758877 -0.04412734691630334 0.018291989118846247 -0.048331707957783125 -0.023195002703437738 -0.04056369278929032 0.014793260721791632 0.0424718945020597 0.019195263808441936 4.786027475334231 0.019000285003597142 0.023110194656956837 -0.003417012354199297 0.027567048031422 -0.04554387697372271 -0.0028489905205512467 0.02114127916071348 0.0037174771860592195 -5.599401614099491 0.03705226141922036 0.025010060721974828 -6.710728657633914 -0.011726596496749106 0.010347287767244629 -6.710897125702604 0.038356569676926154 0.0439370334203439 0.028738289986761364 0.033214907197222344 0.03068386251760758 8.054255257432633 3.465621183974821 -19.215976089512427 -0.00630554386304144 10.431979856408073 0.04803953936170886 -5.602847851331689 -15.638354913037153 3.173854061255915 0.03895399756128821 0.043005511362154455 0.009108938188082652 -0.004930641537611862 4.688874286833038 -0.017149958007826902 12.457310894668254 -8.255936595669322 6.922775302948721 -0.03820560590027807 46.41760691550629 -0.03358857350722539 -4.299915755821873 -14.725879585116642 -3.835108120450816 -0.04639910621224043 -0.02860714316904026 0.03208361247750785 0.003965224919826951 -10.771702852472455 -0.0002508666264636419 
0.04293120936780291 0.04153514785841622 0.024347885165792157 0.005613243296030593 -0.0114115818168618 0.00982758144931651 -3.3529468422286257 0.907481841523086 -0.7906200632945108 -0.9500323387600244 3.5727953105986727 0.281753323306371 -1.0907636352815802 -1.7927475279420058 -3.60930519560321 0.4917256722447845 0.4879844452172417 -1.1688888012813061 -0.6541493678855658 11.565683240326146 0.600031353475512 -0.20225514173185324 -1.055848144443008 1.3360722872251098 -0.35632720138706087 -16.713986902404073 0.1603774550438669 -4.102038122660426 1.5376793629390013 -12.886455332423337 71.03951190185946 20.244759318688224 10.333902329269439 19.780501172994352 3.760312261175603 73.9319507896043 16.23508756362692 -0.3607419862313674 -3.647033683572052 4.5181789381570505 -0.13807475025081228 -1.5624348428647334 -0.043975201734918944 -0.04260879823849836 -56.24969062108009 -0.02174196914522566 0.021982925571878604 -56.19127472372682 -38.786476256678995 0.04163371410398059 -0.03303881954611336 -0.045018739691831094 -0.005423053059411883 0.048432486710599326 0.031595245846281525 0.006643851586335482 -0.032315934470308026 -36.66773039559713 0.01959512301214083 -0.047148559939969685 -0.025186882981068536 0.001476622297308249 0.045270263467874286 0.04924543589586821 -0.021727643338980984 -0.04814356390915124 -19.73386551100722 0.049436231960975116 -0.040294856911753316 0.04632208187779304 -0.0220719841612101 -0.005771483952498084 0.01429442113044691 0.009993673502060046 -0.007313349933396705 24.070795268837337 -0.02882811606461014 -0.018066625102441308 28.86489431930376 0.04231367349539572 0.03984036978657432 28.866635976629176 0.021862772289871015 -0.0358637958724844 8.518660295733643 1.8562258239604714 10.013534347358299 -63.96384691447282 21.098207290777623 -29.48557961998921 -48.65082902171357 1.623337063079398 -76.55301700039257 -12.12975448248905 -4.293915394717817 3.5207543004831403 -0.43613006554251865 0.07995541605984285 -8.077195943643071 0.007108750697634976 0.017265158544132665 44.59170022121057 0.04325238902583279 -0.03060358855776911 44.54059441364073 12.506212950866594 0.00794765640010199 -0.023503263802237065 -0.03509509667652447 0.02696225613472824 -0.00773427475520395 0.010047234053800471 -0.017940782289289116 0.021624339798931642 11.064991226652714 0.0344240610207407 -0.02569304844726632 0.013467211186372388 -8.621328186943024e-06 -0.022449994782481754 -0.023282431665262032 0.014632989920123941 -0.044803138324206196 4.739929566270727 0.00512364800777485 0.011288578449018347 -0.014078186654462435 0.027679713922853018 0.009146264959539728 -0.004209270521749389 -0.014295223772478447 0.010811209980507509 -5.596444250489639 -0.027029632625663873 -0.045231782950233994 -6.697565579620627 -0.048371471701286334 0.002671594561995149 -6.69592408853708 0.003300446328804443 -0.00011113058285812858 0.04409168926549251 -0.009476304490880329 -0.031040431587072495 8.007532475532065 3.5288811208718593 -19.21972510142155 0.038837801439124735 10.442023567452187 0.05976210020779174 -5.660456451790369 -15.670762325437368 3.2023459578176388 0.017722931864995843 -0.04652484382675653 0.02576197071029838 0.021388341534828836 4.672223059184112 -0.0012721834375517245 12.454737660956386 -8.216585439624069 6.879212416895803 0.033242594456861854 46.374172237456584 -0.02524308562533485 -4.356549413417434 -14.796445924006203 -3.824898898097578 0.04138302030305452 0.031379340402755654 0.02988704686969602 0.028995863677502412 -10.792880471499844 -0.04343843593956959 
-0.010859027830053165 0.008437525176972835 -0.005228744661410476 -0.027251836636441026 -0.02763042259316585 0.00042353423746580205 -3.3638620672347703 0.8535346696640234 -0.767718278878883 -0.9432502025200374 3.51032718035602 0.30245355933786555 -1.118894921076197 -1.7381100936858416 -3.6055505196444853 0.4497356123512869 0.4862150544388471 -1.169170172447218 -0.7320417626115423 11.49664893644552 0.6231871908740665 -0.18525069548132816 -1.0566638542887545 1.3639251634783436 -0.33604840778822204 -16.76313254812693 0.14231486541552804 -4.122160690457132 1.5568783482434931 -12.88758164414071 71.11911115424338 19.820520580234643 10.503555796338233 20.824733705877506 3.4337589926089227 73.33392233115612 16.383325985410096 -0.36088167062677823 -3.791270156555324 4.504944268937321 -0.12153039466021101 -1.6326883225203412 -0.00260394892871889 -0.03979343402807891 -56.228864254450585 0.03576155542198814 0.043547163061181976 -56.23573683176656 -38.73632811835063 0.0051440409717740145 -0.04208790685819817 0.014880993327443963 0.008326204790467522 -0.023381928429439352 -0.030776139880458863 -0.04254349898921383 -0.023828032498605625 -36.68589635962398 -0.0011194265263523202 -0.007897134166936947 -0.03240510533259881 -0.009830100680031215 -0.03077470829366789 -0.003146819199641354 0.0223499966324896 0.02136117611627611 -19.76613985908558 -0.027920442334034724 0.035323084029497964 0.032570265081058786 0.029483827204554187 -0.02189497861374511 -0.009492711614210978 0.030544191313832555 -0.01046909401261505 24.066545825461922 -0.015427689862246867 0.03700073799145934 28.891841905803282 0.039300288883671694 0.04196951291349856 28.890326608196062 -0.03455172021664942 -0.0024482249502492926 8.50028690811756 1.921966216443265 10.004938389145156 -63.88792461739062 21.097980334022765 -29.47390732547528 -50.85558705017438 1.781697831213516 -77.50234574837897 -12.288580465076254 -4.590889419785857 3.7823350785532623 -0.47465835833309206 0.04134742166464836 -8.105998236884941 -0.040604101691510526 -0.0383764169700632 44.546693905317 0.0043359969227589204 0.03351509694635395 44.57165564832324 12.479533563371236 0.02909307368540806 -0.007966790958930048 0.007452173368744835 -0.005946690196153953 -0.045897831715018406 0.024979137976867374 0.03683005824285795 0.040587758857685625 11.14251536851103 -0.016955252919412512 0.004830405708546232 -0.005647154906396494 -0.03435113143051012 0.009672967029714387 0.007176701900552482 0.018836078172200055 0.004500390039281151 4.750729641458352 0.03146462759189325 0.04062990540304676 0.02383628852017102 0.0010237447173563376 -0.01086196815325907 0.03446371085324546 0.03744703917772221 -0.046279854290788645 -5.577010519068625 -0.029010249650089363 0.0017710012023726665 -6.680238183161875 0.0017290828156040386 0.04297167452439888 -6.767669332275464 -0.017568868227612406 0.016015408745397138 0.02399479645339419 -0.046174813743881785 -0.042506386027080276 8.053836795439002 3.485663495321692 -19.207654923903036 -0.004559537049576631 10.371832373807168 0.025424710089403033 -5.637427907557134 -15.687654049228042 3.1626119527317154 0.0284978696422379 -0.01777198862058448 0.00958451982783628 0.013712428284010501 4.745592428643829 -0.022745959016734773 12.464143287114329 -8.224599253473267 6.88034952946462 0.04488079770845972 46.35441314694626 0.025154838312529324 -4.293672765517599 -14.740895772583784 -3.829407005447816 -0.029849942746910395 -0.024616177957129313 0.025892847458583966 0.016423101464369785 -10.77606064272913 0.0326988405625419 
-0.010152848730424944 -0.03732899023518007 0.011963363063356013 0.030393950052447574 0.026114200226924712 -0.04333629971393007 -3.3665933515311197 0.8914651391215481 -0.763973105179343 -0.9826211572860852 3.5127682916837006 0.3235423982323503 -1.0723690002960664 -1.8208395414486434 -3.506944382297767 0.4166114182623565 0.49003435320200317 -1.213947309801532 -0.7012216065036698 11.554783860456972 0.580919421908763 -0.1929377460998483 -0.9910617218516182 1.2524555242851674 -0.3245753843426994 -16.697292855514018 0.1148520284761509 -4.217225444649831 1.609918108869344 -12.920385380962713 71.24130981400549 19.100677214479582 10.66154840671927 21.481767934227065 2.738914867143005 72.13820444062415 16.719179067742846 -0.3463021378361358 -4.006145320421761 4.518632865777808 -0.11549589046397862 -1.6118564690901225 0.014007582351242739 -0.004065406447124379 -56.23043243079518 -0.024185081193709684 0.04078401270783203 -56.23120176949918 -38.76633304663631 0.027272840263840466 0.029145086224523338 0.043662510554689456 -0.001030645609039257 -0.04329643829883297 -0.007357657442432313 -0.01962813768937397 0.024931670971714674 -36.69241057892217 -0.0074445761666374986 -0.04186665998611442 -0.03668183662516665 -0.018807190288381296 -0.025618049419468877 0.01211314101442148 -0.02378220231739329 -0.031129875997254412 -19.723388268014265 0.0004304310673349392 0.004542343355571047 -0.018378523823422817 0.015137131369221428 -0.01843097131999139 0.009593915780164237 -0.03695427973558273 0.03535924899495815 24.018950602990298 -0.024405145346386804 0.027245408691060433 28.901353198043836 0.003384778090337902 -0.0013042409834321488 28.82494922460055 0.012252584124775385 0.026423199153234374 8.518800442549056 1.8360605422434 10.061570451174608 -63.83432319139727 21.123840261359145 -29.184880972514573 -51.777641255743866 1.053083258789565 -78.15355893198736 -12.240948073896027 -5.005004219628909 4.003399545619267 -0.4432119879262411 0.04888716438791591 -8.167932080669926 0.0046933508036378375 -0.024743815394144834 44.55488183167174 -0.0027165279117842265 -0.03145497790622088 44.53451542784315 12.49850334329948 -0.04854915989418196 -0.0017027347521641513 0.027564524252326177 -0.009276284410746117 -0.02770108590560003 -0.029807298722846518 0.00727448986865225 0.008883616020315281 11.142577775286632 -0.03667577609029355 0.018540757825845133 -0.03285684486773125 0.022646921274083482 0.023745194005849846 0.018609018624678075 -0.03902269638212208 -0.009056857131758992 4.761230512725352 0.004106655037298501 0.03837640417194146 0.017114303378371852 0.010320102812490961 -0.010661614052852304 0.008064833023345768 0.009661462676038407 -0.006243563913170857 -5.613798098147367 0.03196246421218352 -0.037903342437487636 -6.684321751459318 0.008123773419960765 0.025679999760239682 -6.74182387128467 0.03994852096323581 0.014803465705604079 0.005687714325452146 -0.0007455705803973867 0.022232948638060877 8.016239707077942 3.5307177807901007 -19.209433857605497 -0.02327331401567441 10.369153642583669 0.03015416464402602 -5.60180526754063 -15.692245027844379 3.161716964592961 0.007677457213421417 0.016705257723275066 -0.0075129595023836525 -0.023838041685548896 4.723596508926305 -0.012859869393299838 12.453216039812006 -8.234193711934989 6.883287459900602 0.019086806772470048 46.35177427872354 0.011197883969108167 -4.371562702148031 -14.708198459679329 -3.8730385993863514 0.03817255419107823 0.038063711787711264 -0.01398452285451382 -0.002695665659720551 -10.723535342371227 -0.037324611082917514 
